<?xml version="1.0" encoding="utf-8"?>
<!-- Generator: Adobe Illustrator 16.0.0, SVG Export Plug-In . SVG Version: 6.00 Build 0)  -->
<!DOCTYPE svg PUBLIC "-//W3C//DTD SVG 1.1//EN" "http://www.w3.org/Graphics/SVG/1.1/DTD/svg11.dtd">
<svg version="1.1" id="Layer_1" xmlns="http://www.w3.org/2000/svg" xmlns:xlink="http://www.w3.org/1999/xlink" x="0px" y="0px"
	 width="400px" height="92.334px" viewBox="0 0 400 92.334" enable-background="new 0 0 400 92.334" xml:space="preserve">
<g>
	<g>
		<g>
			<path d="M2.031,81.375c0.6,3.423,2.18,6.285,5.736,7.12c3.187,0.748,6.462-0.518,9.183-2.093
				c8.193-4.744,13.456-14.437,17.867-22.463C44.941,45.514,51.791,25.271,57.772,5.182c-0.659-0.103-1.317-0.207-1.976-0.31
				c-1.325,8.262-1.736,16.733-1.838,25.089c-0.048,3.918,0.007,7.866,0.487,11.759c0.39,3.167,1.113,6.785,3.497,9.091
				c3.893,3.767,9.484,0.072,12.584-2.745c4.722-4.292,8.801-10.066,11.312-15.937c-0.624-0.03-1.248-0.059-1.872-0.089
				c3.821,3.868,9.273,9.195,8.957,15.087c-0.111,2.066-1.266,3.922-2.823,5.215c-2.433,2.021-4.134,0.389-4.343-2.344
				c-0.337-4.397,5.582-7.167,8.659-8.97c5.362-3.142,10.641-6.31,15.113-10.682c4.057-3.966,7.271-8.848,9.527-14.041
				c1.458-3.356,2.952-7.784,1.642-11.417c-0.771-2.139-3.758-3.317-5.845-2.485c-3.061,1.221-3.067,5.966-3.156,8.671
				c-0.369,11.231,1.423,22.479,1.484,33.701c0.003,0.59,1.91,0.862,1.976,0.31c0.417-3.519,1.372-7.1,2.699-10.377
				c0.372-0.919,2.234-5.226,3.862-3.749c1.379,1.251,1.387,4.336,1.965,6.007c3.157,9.118,15.83,2.743,20.333-1.343
				c4.426-4.017,6.258-10.219,7.168-15.939c0.491-3.083,1.409-9.414-1.406-11.812c-4.299-3.662-7.16,2.746-8.08,5.896
				c-1.787,6.116-2.189,12.734-2.207,19.072c-0.013,4.893-0.07,10.909,2.22,15.392c2.417,4.729,8.513,4.246,11.833,1.067
				c4.184-4.004,7.024-10.996,7.826-16.663c-0.659-0.103-1.317-0.207-1.976-0.31c0.079,3.522,1.242,8.858,5.449,9.293
				c4.71,0.487,7.797-4.433,8.31-8.553c-0.659-0.103-1.317-0.207-1.976-0.31c0.152,1.919,0.782,3.837,1.275,5.686
				c0.902,3.375,1.852,6.737,2.75,10.113c2.077,7.812,4.14,15.806,4.659,23.901c0.232,3.62-0.086,13.483-6.376,10.398
				c-5.154-2.527-1.228-11.451,0.286-15c3.362-7.881,8.042-15.208,12.578-22.451c3.342-5.336,7.462-10.732,9.744-16.646
				c-0.659-0.103-1.317-0.207-1.976-0.31c-0.668,3.829-0.659,7.713-1.04,11.573c-0.057,0.578,1.793,0.86,1.976,0.31
				c1.394-4.208,4.319-8.328,8.482-10.155c3.912-1.716,3.16,4.717,3.072,6.883c-0.237,5.896-0.999,12.186,1.312,17.793
				c2.565,6.228,9.312,8.095,15.484,8.229c8.729,0.188,17.869-5.397,16.355-15.178c-0.102-0.652-2.042-0.734-1.977-0.31
				c1.824,11.786-11.2,16.604-20.77,13.821c-7.098-2.064-8.652-9.479-8.72-15.936c-0.031-2.969,0.214-5.934,0.321-8.9
				c0.077-2.159,0.504-5.379-1.456-6.85c-1.934-1.451-4.67-0.632-6.551,0.426c-3.666,2.063-6.235,5.958-7.53,9.867
				c0.659,0.103,1.317,0.207,1.976,0.31c0.381-3.86,0.372-7.745,1.04-11.573c0.098-0.562-1.767-0.852-1.976-0.31
				c-2.311,5.991-6.523,11.47-9.91,16.877c-4.417,7.052-8.856,14.183-12.233,21.806c-1.783,4.026-5.01,11.209-1.303,15.101
				c2.828,2.968,8.528,2.75,10.286-1.109c1.487-3.266,1.021-7.475,0.661-10.919c-0.507-4.854-1.545-9.656-2.667-14.399
				c-1.112-4.7-2.394-9.357-3.673-14.014c-0.773-2.813-1.894-5.797-2.126-8.725c-0.045-0.578-1.905-0.875-1.976-0.31
				c-0.379,3.048-2.019,6.283-4.85,7.689c-3.75,1.862-4.905-5.52-4.957-7.811c-0.013-0.585-1.896-0.87-1.976-0.31
				c-0.51,3.602-1.945,7.143-3.548,10.382c-1.432,2.893-4.895,9.134-8.974,8.208c-3.168-0.719-4.042-4.24-4.573-6.935
				c-0.729-3.707-0.843-7.556-0.833-11.323c0.02-7.133,0.399-15.268,3.393-21.868c0.891-1.964,2.836-4.47,4.075-1.314
				c1.965,5.007,0.192,11.973-1.414,16.808c-2.195,6.605-7.002,11.524-13.641,13.729c-3.058,1.015-6.067,1.125-7.833-1.99
				c-1.194-2.107-0.953-4.75-2.243-6.801c-0.765-1.216-2.395-1.531-3.719-1.47c-1.737,0.08-2.817,1.86-3.536,3.208
				c-1.875,3.517-2.9,7.869-3.368,11.816c0.659,0.103,1.317,0.207,1.976,0.31c-0.052-9.634-0.969-19.321-1.415-28.95
				c-0.171-3.702-0.679-8.732,1.433-12.011c1.145-1.778,2.875-0.938,3.585,0.677c0.765,1.736,0.423,3.921,0.082,5.713
				c-2.331,12.21-12.29,21.611-22.456,27.73c-3.844,2.314-8.682,4.331-11.475,7.995c-1.59,2.086-1.699,6.422,1.143,7.584
				c3.771,1.541,7.374-1.364,8.552-4.866c1.09-3.237-0.584-6.337-2.21-9.031c-1.818-3.011-4.203-5.528-6.662-8.018
				c-0.321-0.325-1.634-0.646-1.872-0.089c-2.192,5.124-5.625,9.879-9.403,13.943c-1.854,1.994-3.95,3.873-6.413,5.073
				c-2.986,1.456-4.873-0.095-6.136-2.86c-2.837-6.207-2.085-14.525-1.908-21.149c0.193-7.216,0.626-14.512,1.77-21.646
				c0.089-0.558-1.809-0.871-1.976-0.31c-5.284,17.746-11.34,35.378-19.48,52.037c-4.049,8.288-8.709,16.509-14.74,23.532
				c-2.489,2.898-5.673,5.333-9.233,6.742c-4.841,1.915-7.573-1.155-8.374-5.721C3.877,80.938,1.918,80.732,2.031,81.375
				L2.031,81.375z"/>
		</g>
	</g>
	<g>
		<g>
			<path d="M34.369,26.854c4.689,1.416,9.653,2.011,14.51,2.512c6.07,0.626,12.234,0.891,18.32,0.347
				c1.288-0.115-0.32-0.861-0.919-0.808c-5.755,0.515-11.563,0.226-17.305-0.333c-4.507-0.439-9.17-0.968-13.521-2.281
				C34.888,26.119,33.136,26.481,34.369,26.854L34.369,26.854z"/>
		</g>
	</g>
</g>
<g>
	<g>
		<g>
			<path d="M264.718,6.042c-5.885-3.816-14.986-2.632-20.729,0.828c-3.07,1.85-5.05,4.993-4.658,8.634
				c0.274,2.554,2.539,4.739,4.311,6.375c7.723,7.134,33.419,19.842,17.655,32.048c-2.71,2.099-6.906,3.975-10.388,3.301
				c-4.6-0.892-4.438-5.883-2.432-8.806c1.479-2.156,3.653-3.849,5.69-5.445c3.548-2.781,7.09-5.568,10.575-8.428
				c6.178-5.07,12.213-10.396,17.43-16.469c3.915-4.558,7.45-9.849,8.598-15.838c-0.647-0.161-1.294-0.322-1.941-0.483
				c-0.569,7.837-0.681,15.784-0.369,23.637c0.162,4.097,0.538,8.203,1.396,12.217c0.646,3.023,1.697,6.682,4.116,8.806
				c10.214,8.968,20.032-13.201,21.707-20.403c-0.647-0.161-1.294-0.322-1.941-0.483c-0.242,4.876,0.354,10.037,3.825,13.749
				c2.708,2.894,6.906,3.858,10.725,3.89c10.514,0.087,18.642-10.481,22.752-18.99c2.183-4.517,3.827-9.942,3.284-15.011
				c-0.279-2.6-1.323-5.646-4.409-5.753c-3.568-0.123-5.519,4.246-6.662,6.967c-2.028,4.825-2.779,10.139-2.646,15.344
				c0.195,7.683,2.856,17.562,10.773,20.686c10.134,3.998,19.321-3.833,24.884-11.616c3.126-4.375,5.071-9.382,5.379-14.773
				c0.152-2.666-0.074-7.402-3.188-8.459c-3.629-1.233-5.923,2.268-7.551,5.003c-2.606,4.376-3.815,9.31-3.981,14.37
				c-0.291,8.822,2.733,18.521,9.207,24.723c6.08,5.826,14.437,6.094,21.426,1.762c0.385-0.239-1.301-0.995-1.82-0.673
				c-4.242,2.63-9.192,3.891-13.895,1.685c-4.062-1.907-6.991-5.774-9.035-9.644c-4.407-8.348-5.329-18.987-1.892-27.818
				c1.056-2.713,2.562-5.455,4.608-7.541c0.418-0.426,1.68-1.593,2.328-1.165c0.813,0.538,1.163,1.732,1.424,2.609
				c1.466,4.941-0.225,10.985-2.478,15.412c-4.416,8.677-17.666,22.464-27.751,13.516c-6.492-5.759-7.214-16.619-6.109-24.598
				c0.645-4.662,2.129-10.159,5.446-13.648c4.091-4.302,4.116,5.528,3.896,7.587c-1.082,10.175-7.741,20.642-16.236,26.229
				c-4.431,2.915-10.575,4.164-15.272,1.125c-4.679-3.026-5.342-9.453-5.091-14.484c0.028-0.583-1.812-1.037-1.941-0.483
				c-1.38,5.94-13.112,30.909-19.959,18.248c-3.291-6.086-3.32-14.151-3.47-20.88c-0.152-6.872-0.036-13.803,0.462-20.658
				c0.043-0.591-1.837-1.025-1.941-0.483c-1.144,5.969-4.633,11.071-8.477,15.649c-4.733,5.638-10.336,10.542-15.965,15.256
				c-5.278,4.42-11.223,8.292-16.093,13.165c-1.554,1.554-2.925,3.438-3.259,5.651c-0.363,2.413,1.558,4.277,3.327,5.546
				c3.59,2.572,9.128,0.924,12.554-1.025c3.358-1.91,6.402-4.907,7.242-8.808c1.395-6.474-5.417-11.912-9.821-15.389
				c-3.437-2.713-7.075-5.158-10.514-7.869c-2.513-1.982-5.605-4.417-6.474-7.658c-1.268-4.731,3.136-8.387,6.958-9.987
				c4.25-1.778,10.81-2.694,14.899-0.042C263.626,6.519,265.579,6.601,264.718,6.042L264.718,6.042z"/>
		</g>
	</g>
	<g>
		<g>
			<path d="M279.512,27.355c6.572-0.324,13.128-0.91,19.699-1.23c1.293-0.063-0.27-0.886-0.873-0.856
				c-6.572,0.321-13.128,0.907-19.699,1.23C277.346,26.562,278.908,27.384,279.512,27.355L279.512,27.355z"/>
		</g>
	</g>
	<g>
		<g>
			<path d="M314.593,20.12c0.175-0.178,0.332-0.35,0.389-0.598c0.125-0.544-1.832-0.95-1.963-0.38
				c-0.042,0.182-0.152,0.273-0.279,0.402C312.354,19.938,314.178,20.543,314.593,20.12L314.593,20.12z"/>
		</g>
	</g>
</g>
</svg>
